<svg width="36" height="36" viewBox="0 0 36 36" fill="none" xmlns="http://www.w3.org/2000/svg">
<rect width="36" height="36" rx="18" fill="#DFECF2"/>
<g clip-path="url(#clip0_118_74)">
<path d="M22.6954 12.524V14.377C22.6954 15.7016 22.1485 16.9719 21.1751 17.9076L21.1676 17.9148C20.5492 18.5088 19.7112 18.8423 18.838 18.8423H17.9137C17.0426 18.8423 16.2067 18.5109 15.5894 17.9189C14.6107 16.9821 14.0605 15.7088 14.0605 14.3811V11.4098L14.4955 11.3636C15.9924 11.2056 17.3582 10.3817 18.2581 9.09299L18.5054 8.73901L18.5726 8.84777C19.4959 10.3447 21.0216 11.2928 22.6944 11.4087V12.523L22.6954 12.524Z" stroke="black" stroke-width="0.477707" stroke-linecap="round" stroke-linejoin="round"/>
<path d="M21.3337 20.7312C20.8038 20.5178 20.4253 20.0335 20.3784 19.4589L20.3145 18.6606" stroke="black" stroke-width="0.477707" stroke-linecap="round" stroke-linejoin="round"/>
<path d="M8.26367 28.4595V26.0863C8.26367 25.0552 8.59312 24.0487 9.20617 23.2032C10.0612 22.0264 11.3971 21.2558 12.8791 21.0875L15.294 20.8382C16.0435 20.7602 16.6288 20.1805 16.6864 19.4572L16.7504 18.6589" stroke="black" stroke-width="0.477707" stroke-linecap="round" stroke-linejoin="round"/>
<path d="M14.6384 25.6108H10.25V27.431H14.6384V25.6108Z" stroke="black" stroke-width="0.477707" stroke-linecap="round" stroke-linejoin="round"/>
<path d="M20.4396 19.7761L21.0367 19.6643C23.1189 19.2723 24.7469 17.6522 24.99 15.6238C25.0135 15.4329 25.0252 15.239 25.0252 15.0441V11.0251V11.2919C25.0252 7.76647 22.0549 4.90796 18.3915 4.90796C14.7282 4.90796 11.7578 7.76647 11.7578 11.2919V11.0251V15.0441C11.7578 15.1087 11.7589 15.1723 11.7621 15.237C11.8495 17.446 13.5863 19.2734 15.8487 19.654L16.6206 19.7833" stroke="black" stroke-width="0.477707" stroke-linecap="round" stroke-linejoin="round"/>
<path d="M16.5625 21.9133C17.0753 22.0949 17.7694 22.2068 18.5306 22.2068C19.2919 22.2068 19.9838 22.0949 20.4977 21.9133" stroke="black" stroke-width="0.477707" stroke-linecap="round" stroke-linejoin="round"/>
<path d="M17.0176 15.9583C17.4024 16.1553 17.9231 16.2767 18.4943 16.2767C19.0655 16.2767 19.5846 16.1553 19.9702 15.9583" stroke="black" stroke-width="0.636943" stroke-linecap="round" stroke-linejoin="round"/>
<path d="M20.4648 13.251C20.358 13.1524 20.2133 13.0917 20.0546 13.0917C19.896 13.0917 19.7518 13.1524 19.6447 13.251" stroke="black" stroke-width="0.636943" stroke-linecap="round" stroke-linejoin="round"/>
<path d="M17.3477 13.251C17.2408 13.1524 17.0961 13.0917 16.9375 13.0917C16.7788 13.0917 16.6346 13.1524 16.5275 13.251" stroke="black" stroke-width="0.636943" stroke-linecap="round" stroke-linejoin="round"/>
<path d="M16.1663 28.4716C15.8976 27.5604 15.839 26.5939 15.9967 25.6602C16.1449 24.7861 16.4797 23.9457 16.5906 23.0675C16.6365 22.7053 16.6365 22.3267 16.5725 21.9635C16.4872 21.4628 16.2814 20.9928 15.9104 20.645" stroke="black" stroke-width="0.477707" stroke-linecap="round" stroke-linejoin="round"/>
<path d="M12.8789 21.0884V22.6161" stroke="black" stroke-width="0.477707" stroke-linecap="round" stroke-linejoin="round"/>
<path d="M13.2565 24.4318C13.757 24.2323 13.9947 23.6801 13.7874 23.1985C13.5801 22.7168 13.0063 22.4881 12.5058 22.6876C12.0053 22.8871 11.7677 23.4393 11.975 23.9209C12.1823 24.4026 12.7561 24.6313 13.2565 24.4318Z" stroke="black" stroke-width="0.477707" stroke-linecap="round" stroke-linejoin="round"/>
<path d="M21.7699 23.3871C22.4085 24.0017 22.5727 24.8389 22.1377 25.2586C21.7027 25.6772 20.8317 25.5192 20.193 24.9046C19.5544 24.29 19.3902 23.4527 19.8252 23.0331C20.2602 22.6145 21.1313 22.7725 21.7699 23.3871Z" stroke="black" stroke-width="0.477707" stroke-linecap="round" stroke-linejoin="round"/>
<path d="M28.5778 23.2435C27.9392 23.8581 27.775 24.6953 28.21 25.115C28.645 25.5336 29.516 25.3756 30.1547 24.761C30.7933 24.1464 30.9575 23.3092 30.5225 22.8895C30.0875 22.4699 29.2164 22.6289 28.5778 23.2435Z" stroke="black" stroke-width="0.477707" stroke-linecap="round" stroke-linejoin="round"/>
<path d="M28.1258 21.88C28.3712 21.044 28.0895 20.2357 27.4968 20.0746C26.9041 19.9135 26.2247 20.4606 25.9794 21.2966C25.734 22.1326 26.0157 22.9409 26.6084 23.102C27.2011 23.2631 27.8805 22.716 28.1258 21.88Z" stroke="black" stroke-width="0.477707" stroke-linecap="round" stroke-linejoin="round"/>
<path d="M23.8288 23.0985C24.4216 22.9374 24.7032 22.1291 24.4579 21.2931C24.2125 20.4571 23.5332 19.91 22.9404 20.0711C22.3477 20.2322 22.0661 21.0405 22.3114 21.8765C22.5567 22.7125 23.2361 23.2596 23.8288 23.0985Z" stroke="black" stroke-width="0.477707" stroke-linecap="round" stroke-linejoin="round"/>
<path d="M27.7851 26.1463C27.5068 25.9503 27.3085 25.6692 27.1848 25.3593C26.9183 24.6914 26.2466 24.2163 25.4576 24.2163C24.7262 24.2163 24.0951 24.6236 23.7933 25.2157C23.6206 25.5542 23.3338 25.82 22.9831 25.9883C22.3348 26.3012 21.903 26.9691 21.9649 27.7263C22.0331 28.5667 22.7261 29.2592 23.5972 29.3536C23.9821 29.3957 24.3456 29.3228 24.658 29.1679C25.0322 28.9822 25.4726 28.9822 25.8468 29.1679C26.1592 29.3228 26.5238 29.3947 26.9087 29.3536C27.7744 29.2592 28.4653 28.5738 28.5389 27.7387C28.5964 27.0841 28.2862 26.4972 27.7861 26.1452L27.7851 26.1463Z" stroke="black" stroke-width="0.477707" stroke-linecap="round" stroke-linejoin="round"/>
</g>
<defs>
<clipPath id="clip0_118_74">
<rect width="23" height="25" fill="white" transform="translate(8 4.6521)"/>
</clipPath>
</defs>
</svg>
