<svg width="18" height="18" viewBox="0 0 18 18" fill="none" xmlns="http://www.w3.org/2000/svg">
<path d="M11.4563 9.35625L8.64375 6.525L10.725 4.4625L10.1813 3.91875L6.6 7.5C6.45 7.65 6.275 7.725 6.075 7.725C5.875 7.725 5.7 7.65 5.55 7.5C5.4 7.35 5.325 7.17188 5.325 6.96563C5.325 6.75938 5.4 6.58125 5.55 6.43125L9.1125 2.86875C9.4125 2.56875 9.76563 2.41875 10.1719 2.41875C10.5781 2.41875 10.9313 2.56875 11.2313 2.86875L11.775 3.4125L12.7125 2.475C12.8625 2.325 13.0406 2.25 13.2469 2.25C13.4531 2.25 13.6313 2.325 13.7813 2.475L15.525 4.21875C15.675 4.36875 15.75 4.54688 15.75 4.75313C15.75 4.95938 15.675 5.1375 15.525 5.2875L11.4563 9.35625ZM3 15.75C2.7875 15.75 2.60938 15.6781 2.46563 15.5344C2.32188 15.3906 2.25 15.2125 2.25 15V13.5563C2.25 13.3563 2.2875 13.1656 2.3625 12.9844C2.4375 12.8031 2.54375 12.6438 2.68125 12.5063L7.575 7.59375L10.4063 10.4063L5.49375 15.3188C5.35625 15.4563 5.19688 15.5625 5.01563 15.6375C4.83438 15.7125 4.64375 15.75 4.44375 15.75H3Z" fill="#5E8AA7"/>
</svg>
