<svg width="24" height="24" viewBox="0 0 24 24" fill="none" xmlns="http://www.w3.org/2000/svg">
<path d="M14.1215 10.2518C15.167 10.2518 16.0145 9.4043 16.0145 8.35882C16.0145 7.31335 15.167 6.46582 14.1215 6.46582C13.076 6.46582 12.2285 7.31335 12.2285 8.35882C12.2285 9.4043 13.076 10.2518 14.1215 10.2518Z" stroke="#3D606F" stroke-width="0.774194" stroke-linecap="round" stroke-linejoin="round"/>
<path d="M17.7283 11.8888C18.4193 11.3258 19.7232 10.2103 19.1862 13.0188C21.9617 14.1718 20.8428 15.1563 21.0968 15.6313C21.1588 15.7497 21.2442 15.8543 21.3479 15.9387C21.4515 16.0231 21.5712 16.0855 21.6997 16.1223M19.3958 14.6398C19.7538 14.6763 19.9188 14.7208 20.1523 14.9228M19.2302 16.3158C19.4212 17.1643 20.4432 18.2513 21.7507 16.8033M16.1357 13.0908C14.0257 13.8968 14.3458 16.9598 12.3438 17.7658" stroke="#3D606F" stroke-width="0.774194" stroke-linecap="round" stroke-linejoin="round"/>
<path d="M4.76367 10.1845C6.37517 9.4645 7.28167 9.1425 8.32267 9.9925C9.62717 11.0575 10.7882 13.9635 14.8407 14.181" stroke="#3D606F" stroke-width="0.774194" stroke-linecap="round" stroke-linejoin="round"/>
<path d="M7.9687 11.5851C8.4102 12.3716 9.0912 13.7821 8.5922 14.6401M7.4797 16.2566C7.6712 17.1586 7.9157 17.8586 8.2517 18.4006M5.6597 14.3641C5.7432 15.1891 6.1527 15.4766 6.8242 15.4701M3.5117 11.3261C2.4307 11.4286 2.1817 11.7546 2.2647 12.6436C2.3477 13.5326 3.3582 14.4661 5.4557 13.1426M4.9822 11.0451C5.1522 10.9281 5.4492 10.9491 5.6152 11.0451M14.1207 8.35911V7.30711M13.5197 5.59961H14.7217M14.1207 6.46611V5.59961M15.4872 7.05011L15.7192 6.81761M11.3452 7.83311H11.5177M11.3452 8.90211H11.5177" stroke="#3D606F" stroke-width="0.774194" stroke-linecap="round" stroke-linejoin="round"/>
</svg>
