<svg width="36" height="36" viewBox="0 0 36 36" fill="none" xmlns="http://www.w3.org/2000/svg">
<rect width="36" height="36" rx="5" fill="#3D606F"/>
<g clip-path="url(#clip0_853_2)">
<path d="M21.6964 13.5243V15.3773C21.6964 16.7019 21.1495 17.9721 20.1761 18.9078L20.1686 18.915C19.5502 19.5091 18.7122 19.8425 17.839 19.8425H16.9147C16.0436 19.8425 15.2077 19.5111 14.5904 18.9191C13.6117 17.9824 13.0615 16.7091 13.0615 15.3814V12.41L13.4965 12.3638C14.9934 12.2058 16.3592 11.3819 17.259 10.0932L17.5064 9.73926L17.5735 9.84802C18.4969 11.345 20.0225 12.293 21.6954 12.409V13.5232L21.6964 13.5243Z" stroke="white" stroke-width="0.6" stroke-linecap="round" stroke-linejoin="round"/>
<path d="M20.3337 21.7317C19.8038 21.5182 19.4253 21.034 19.3784 20.4594L19.3145 19.6611" stroke="white" stroke-width="0.6" stroke-linecap="round" stroke-linejoin="round"/>
<path d="M7.26367 29.4598V27.0866C7.26367 26.0554 7.59312 25.0489 8.20617 24.2035C9.06123 23.0266 10.3971 22.2561 11.8791 22.0878L14.294 21.8385C15.0435 21.7605 15.6288 21.1808 15.6864 20.4574L15.7504 19.6592" stroke="white" stroke-width="0.6" stroke-linecap="round" stroke-linejoin="round"/>
<path d="M13.6374 26.6113H9.24902V28.4315H13.6374V26.6113Z" stroke="white" stroke-width="0.6" stroke-linecap="round" stroke-linejoin="round"/>
<path d="M19.4406 20.7764L20.0377 20.6645C22.1199 20.2726 23.7479 18.6525 23.991 16.624C24.0145 16.4332 24.0262 16.2393 24.0262 16.0443V12.0254V12.2921C24.0262 8.76671 21.0558 5.9082 17.3925 5.9082C13.7291 5.9082 10.7588 8.76671 10.7588 12.2921V12.0254V16.0443C10.7588 16.109 10.7599 16.1726 10.7631 16.2372C10.8505 18.4463 12.5873 20.2736 14.8497 20.6543L15.6216 20.7835" stroke="white" stroke-width="0.6" stroke-linecap="round" stroke-linejoin="round"/>
<path d="M15.5625 22.9141C16.0753 23.0957 16.7694 23.2075 17.5306 23.2075C18.2919 23.2075 18.9838 23.0957 19.4977 22.9141" stroke="white" stroke-width="0.6" stroke-linecap="round" stroke-linejoin="round"/>
<path d="M16.0176 16.959C16.4024 17.1561 16.9231 17.2775 17.4943 17.2775C18.0655 17.2775 18.5846 17.1561 18.9702 16.959" stroke="white" stroke-width="0.6" stroke-linecap="round" stroke-linejoin="round"/>
<path d="M19.4639 14.251C19.357 14.1524 19.2123 14.0917 19.0537 14.0917C18.895 14.0917 18.7508 14.1524 18.6437 14.251" stroke="white" stroke-width="0.6" stroke-linecap="round" stroke-linejoin="round"/>
<path d="M16.3467 14.251C16.2398 14.1524 16.0951 14.0917 15.9365 14.0917C15.7778 14.0917 15.6336 14.1524 15.5265 14.251" stroke="white" stroke-width="0.6" stroke-linecap="round" stroke-linejoin="round"/>
<path d="M15.1653 29.472C14.8966 28.5609 14.838 27.5944 14.9958 26.6607C15.144 25.7866 15.4787 24.9462 15.5896 24.068C15.6355 23.7058 15.6355 23.3272 15.5715 22.964C15.4862 22.4633 15.2804 21.9933 14.9094 21.6455" stroke="white" stroke-width="0.6" stroke-linecap="round" stroke-linejoin="round"/>
<path d="M11.8789 22.0889V23.6166" stroke="white" stroke-width="0.6" stroke-linecap="round" stroke-linejoin="round"/>
<path d="M12.2565 25.4318C12.757 25.2323 12.9947 24.6801 12.7874 24.1985C12.5801 23.7168 12.0063 23.4881 11.5058 23.6876C11.0053 23.8871 10.7677 24.4393 10.975 24.9209C11.1823 25.4026 11.7561 25.6313 12.2565 25.4318Z" stroke="white" stroke-width="0.6" stroke-linecap="round" stroke-linejoin="round"/>
<path d="M20.7699 24.3878C21.4085 25.0024 21.5727 25.8396 21.1377 26.2593C20.7027 26.6779 19.8317 26.5199 19.193 25.9053C18.5544 25.2907 18.3902 24.4535 18.8252 24.0338C19.2602 23.6152 20.1313 23.7732 20.7699 24.3878Z" stroke="white" stroke-width="0.6" stroke-linecap="round" stroke-linejoin="round"/>
<path d="M27.5788 24.2447C26.9401 24.8593 26.776 25.6965 27.211 26.1162C27.646 26.5348 28.517 26.3768 29.1556 25.7622C29.7943 25.1476 29.9585 24.3104 29.5235 23.8907C29.0885 23.4711 28.2174 23.6301 27.5788 24.2447Z" stroke="white" stroke-width="0.6" stroke-linecap="round" stroke-linejoin="round"/>
<path d="M27.1268 22.8812C27.3721 22.0452 27.0905 21.2369 26.4978 21.0758C25.905 20.9147 25.2257 21.4618 24.9803 22.2978C24.735 23.1338 25.0166 23.9421 25.6094 24.1032C26.2021 24.2643 26.8815 23.7172 27.1268 22.8812Z" stroke="white" stroke-width="0.6" stroke-linecap="round" stroke-linejoin="round"/>
<path d="M22.8288 24.099C23.4216 23.9379 23.7032 23.1296 23.4579 22.2936C23.2125 21.4576 22.5332 20.9105 21.9404 21.0716C21.3477 21.2327 21.0661 22.041 21.3114 22.877C21.5567 23.713 22.2361 24.2601 22.8288 24.099Z" stroke="white" stroke-width="0.6" stroke-linecap="round" stroke-linejoin="round"/>
<path d="M26.7851 27.1468C26.5068 26.9508 26.3085 26.6697 26.1848 26.3598C25.9183 25.6918 25.2466 25.2168 24.4576 25.2168C23.7262 25.2168 23.0951 25.6241 22.7933 26.2161C22.6206 26.5547 22.3338 26.8205 21.9831 26.9887C21.3348 27.3017 20.903 27.9696 20.9649 28.7268C21.0331 29.5672 21.7261 30.2597 22.5972 30.3541C22.9821 30.3962 23.3456 30.3233 23.658 30.1684C24.0322 29.9827 24.4726 29.9827 24.8468 30.1684C25.1592 30.3233 25.5238 30.3952 25.9087 30.3541C26.7744 30.2597 27.4653 29.5743 27.5389 28.7391C27.5964 28.0845 27.2862 27.4977 26.7861 27.1457L26.7851 27.1468Z" stroke="white" stroke-width="0.6" stroke-linecap="round" stroke-linejoin="round"/>
</g>
<defs>
<clipPath id="clip0_853_2">
<rect width="23" height="25" fill="white" transform="translate(7 5.65234)"/>
</clipPath>
</defs>
</svg>
