<svg width="125" height="102" viewBox="0 0 125 102" fill="none" xmlns="http://www.w3.org/2000/svg">
<path d="M91.4047 68.77H120.494C122.435 68.77 124 70.1232 124 71.7966V97.9734C124 99.6468 122.428 101 120.494 101H4.5058C2.56457 101 1 99.6468 1 97.9734V71.7966C1 70.1232 2.57182 68.77 4.5058 68.77H91.3975H91.4047Z" stroke="#F1F1F1" stroke-width="1.58244" stroke-miterlimit="10"/>
<path d="M76.1684 24.2593V29.9195C76.1684 33.9646 74.5241 37.8424 71.5906 40.7089L71.5688 40.7308C69.7073 42.5423 67.1794 43.5682 64.5572 43.5682H61.7758C59.1537 43.5682 56.6402 42.5569 54.7787 40.7453C51.8306 37.8788 50.1719 33.9937 50.1719 29.9341V20.8544L51.4757 20.7162C55.9811 20.236 60.1026 17.7114 62.8043 13.7754L63.5504 12.6914L63.7605 13.0188C66.5419 17.595 71.1342 20.4906 76.1756 20.8471V24.2447V24.2665H76.1684V24.2593Z" stroke="#F1F1F1" stroke-width="1.58244" stroke-linecap="round" stroke-linejoin="round"/>
<path d="M32.7031 68.2751V65.6924C32.7031 62.5421 33.6955 59.4646 35.5425 56.8819C38.1139 53.2806 42.134 50.9379 46.6032 50.4141L53.8683 49.6501C56.1282 49.4101 57.8884 47.6421 58.0695 45.4304L58.265 42.9932" stroke="#F1F1F1" stroke-width="1.58244" stroke-linecap="round" stroke-linejoin="round"/>
<path d="M81.852 59.9595H68.6328V65.5179H81.852V59.9595Z" stroke="#F1F1F1" stroke-width="1.58244" stroke-linecap="round" stroke-linejoin="round"/>
<path d="M69.3836 46.413L71.1727 46.0783C77.4527 44.8851 82.3492 39.9306 83.0736 33.7392C83.146 33.1499 83.1822 32.5679 83.1822 31.9713V19.6905V20.5053C83.1822 9.73774 74.2294 1 63.2122 1C52.195 1 43.2422 9.73047 43.2422 20.5053V19.6905V31.9713C43.2422 32.1678 43.2422 32.3715 43.2494 32.5606C43.5102 39.3122 48.7472 44.8924 55.5559 46.0565L57.8811 46.4566" stroke="#F1F1F1" stroke-width="1.58244" stroke-linecap="round" stroke-linejoin="round"/>
<path d="M55.9824 49.25C57.7933 50.7051 60.2488 51.6 62.9506 51.6C65.6523 51.6 68.1006 50.7051 69.9115 49.25" stroke="#F1F1F1" stroke-width="1.58244" stroke-linecap="round" stroke-linejoin="round"/>
<path d="M59.0762 34.7505C60.2351 35.3543 61.7997 35.7254 63.5236 35.7254C65.2475 35.7254 66.8121 35.3543 67.9711 34.7505" stroke="#F1F1F1" stroke-width="1.58244" stroke-linecap="round" stroke-linejoin="round"/>
<path d="M69.4479 26.4855C69.1292 26.1872 68.6946 25.998 68.2093 25.998C67.724 25.998 67.2967 26.1872 66.9707 26.4855" stroke="#F1F1F1" stroke-width="1.58244" stroke-linecap="round" stroke-linejoin="round"/>
<path d="M60.0612 26.4855C59.7425 26.1872 59.3079 25.998 58.8226 25.998C58.3373 25.998 57.9099 26.1872 57.584 26.4855" stroke="#F1F1F1" stroke-width="1.58244" stroke-linecap="round" stroke-linejoin="round"/>
<path d="M60.3574 67.7083C60.8065 65.2201 62.0669 60.9858 62.4073 58.4904C62.5449 57.4573 62.5449 56.3805 62.3566 55.3474C62.0958 53.9287 61.4729 52.59 60.3574 51.6006" stroke="#F1F1F1" stroke-width="1.58244" stroke-linecap="round" stroke-linejoin="round"/>
<path d="M54.8043 56.708C53.6526 56.628 52.7833 55.9004 52.8558 55.1074C52.9282 54.3144 53.935 53.7251 55.094 53.8051C56.2457 53.8852 57.1149 54.6127 57.0425 55.4057C56.97 56.1987 55.9632 56.788 54.8043 56.708Z" stroke="#F1F1F1" stroke-width="1.58244" stroke-miterlimit="10"/>
<path d="M46.9068 63.3645C47.1023 62.2222 46.617 61.1964 45.8347 61.0945C45.0525 60.9854 44.2702 61.8221 44.0746 62.9716C43.879 64.1138 44.3643 65.1396 45.1466 65.2415C45.9289 65.3506 46.7112 64.514 46.9068 63.3645Z" stroke="#F1F1F1" stroke-width="1.58244" stroke-linecap="round" stroke-linejoin="round"/>
<path d="M49.3703 64.0189C49.7687 65.103 50.6886 65.7359 51.4274 65.4522C52.1735 65.1612 52.456 64.0626 52.0721 62.9858C51.6737 61.9018 50.7538 61.2688 50.0149 61.5526C49.2689 61.8436 48.9864 62.9422 49.3703 64.0189Z" stroke="#F1F1F1" stroke-width="1.58244" stroke-linecap="round" stroke-linejoin="round"/>
<path d="M52.9068 58.9849C52.4142 59.6106 52.7402 60.6946 53.6529 61.393C54.5655 62.0915 55.6955 62.1497 56.188 61.524C56.6806 60.8983 56.3546 59.8143 55.442 59.1158C54.5293 58.4174 53.3993 58.3592 52.9068 58.9849Z" stroke="#F1F1F1" stroke-width="1.58244" stroke-linecap="round" stroke-linejoin="round"/>
<path d="M46.7279 59.3701C47.0828 59.3701 47.4233 59.4792 47.7203 59.6684C48.3649 60.0758 49.2124 60.0685 49.8788 59.5811C50.4945 59.13 50.7697 58.3952 50.6538 57.704C50.5814 57.3039 50.6538 56.911 50.8494 56.5472C51.1971 55.8779 51.1464 55.0485 50.6249 54.4374C50.0526 53.7608 49.0386 53.6007 48.249 54.0591C47.9013 54.27 47.6333 54.5465 47.474 54.8739C47.2784 55.2595 46.909 55.5432 46.4744 55.6087C46.1195 55.6669 45.7718 55.8342 45.4676 56.1034C44.7939 56.7218 44.6491 57.7259 45.0981 58.4825C45.4531 59.0791 46.076 59.3846 46.7207 59.3774H46.7279V59.3701Z" stroke="#F1F1F1" stroke-width="1.58244" stroke-linecap="round" stroke-linejoin="round"/>
<path d="M90.2181 68.2755V66.2602C90.2181 63.11 89.3779 60.0325 87.8205 57.4498C85.6403 53.8484 82.2431 51.5058 78.4838 50.9819L72.3414 50.218C70.4437 49.9779 68.9443 48.21 68.7994 45.9983L68.6328 43.561" stroke="#F1F1F1" stroke-width="1.58244" stroke-linecap="round" stroke-linejoin="round"/>
<path d="M71.7891 56.875C73.2377 56.5549 74.4039 55.7546 74.9472 54.5469C75.4904 53.3465 75.3238 51.9423 74.614 50.6255" stroke="#F1F1F1" stroke-width="1.58244" stroke-linecap="round" stroke-linejoin="round"/>
<path d="M49.2692 50.1963C48.2986 50.4728 47.4801 51.0984 47.0093 52.0079C46.5457 52.91 46.524 53.9577 46.8572 54.9035" stroke="#F1F1F1" stroke-width="1.58244" stroke-linecap="round" stroke-linejoin="round"/>
<path d="M29.9012 88.2896L33.4704 80.4819H34.2846L37.8538 88.2896H36.9838L33.7046 80.9615H34.0392L30.7601 88.2896H29.9012ZM31.3066 86.2038L31.552 85.5346H36.0915L36.3369 86.2038H31.3066ZM39.1454 88.2896V80.4819H39.8258L45.213 87.2634H44.8561V80.4819H45.6703V88.2896H44.99L39.6139 81.5081H39.9708V88.2896H39.1454ZM48.2187 88.2896V80.4819H49.0441V88.2896H48.2187ZM51.5844 88.2896V80.4819H52.2648L55.834 86.5719H55.4771L59.0128 80.4819H59.6932V88.2896H58.9013V81.72H59.0909L55.834 87.2969H55.4436L52.1644 81.72H52.3763V88.2896H51.5844ZM60.9879 88.2896L64.5571 80.4819H65.3713L68.9405 88.2896H68.0705L64.7913 80.9615H65.1259L61.8467 88.2896H60.9879ZM62.3933 86.2038L62.6386 85.5346H67.1782L67.4236 86.2038H62.3933ZM70.2321 88.2896V80.4819H71.0575V87.5757H75.4297V88.2896H70.2321ZM76.8001 88.2896V80.4819H77.6255V88.2896H76.8001ZM80.902 84.2631H85.0289V84.9769H80.902V84.2631ZM80.9912 88.2896H80.1659V80.4819H85.5197V81.1958H80.9912V88.2896ZM87.9602 83.9731H92.0871V84.6757H87.9602V83.9731ZM88.0495 87.5757H92.7452V88.2896H87.2241V80.4819H92.5779V81.1958H88.0495V87.5757Z" fill="#F1F1F1"/>
<path d="M29.9012 88.2896L29.5842 88.1446L29.3586 88.6381H29.9012V88.2896ZM33.4704 80.4819V80.1334H33.2465L33.1534 80.337L33.4704 80.4819ZM34.2846 80.4819L34.6016 80.337L34.5085 80.1334H34.2846V80.4819ZM37.8538 88.2896V88.6381H38.3964L38.1708 88.1446L37.8538 88.2896ZM36.9838 88.2896L36.6657 88.4319L36.7579 88.6381H36.9838V88.2896ZM33.7046 80.9615V80.613H33.1668L33.3865 81.1039L33.7046 80.9615ZM34.0392 80.9615L34.3574 81.1039L34.5771 80.613H34.0392V80.9615ZM30.7601 88.2896V88.6381H30.9859L31.0782 88.4319L30.7601 88.2896ZM31.3066 86.2038L30.9793 86.0838L30.8075 86.5524H31.3066V86.2038ZM31.552 85.5346V85.186H31.3085L31.2247 85.4146L31.552 85.5346ZM36.0915 85.5346L36.4188 85.4146L36.335 85.186H36.0915V85.5346ZM36.3369 86.2038V86.5524H36.836L36.6642 86.0838L36.3369 86.2038ZM30.2182 88.4345L33.7874 80.6269L33.1534 80.337L29.5842 88.1446L30.2182 88.4345ZM33.4704 80.8305H34.2846V80.1334H33.4704V80.8305ZM33.9676 80.6269L37.5368 88.4345L38.1708 88.1446L34.6016 80.337L33.9676 80.6269ZM37.8538 87.941H36.9838V88.6381H37.8538V87.941ZM37.302 88.1472L34.0228 80.8192L33.3865 81.1039L36.6657 88.4319L37.302 88.1472ZM33.7046 81.3101H34.0392V80.613H33.7046V81.3101ZM33.7211 80.8192L30.4419 88.1472L31.0782 88.4319L34.3574 81.1039L33.7211 80.8192ZM30.7601 87.941H29.9012V88.6381H30.7601V87.941ZM31.6338 86.3238L31.8792 85.6546L31.2247 85.4146L30.9793 86.0838L31.6338 86.3238ZM31.552 85.8831H36.0915V85.186H31.552V85.8831ZM35.7643 85.6546L36.0097 86.3238L36.6642 86.0838L36.4188 85.4146L35.7643 85.6546ZM36.3369 85.8552H31.3066V86.5524H36.3369V85.8552ZM39.1454 88.2896H38.7968V88.6381H39.1454V88.2896ZM39.1454 80.4819V80.1334H38.7968V80.4819H39.1454ZM39.8258 80.4819L40.0987 80.2651L39.994 80.1334H39.8258V80.4819ZM45.213 87.2634V87.612H45.9351L45.4859 87.0466L45.213 87.2634ZM44.8561 87.2634H44.5076V87.612H44.8561V87.2634ZM44.8561 80.4819V80.1334H44.5076V80.4819H44.8561ZM45.6703 80.4819H46.0189V80.1334H45.6703V80.4819ZM45.6703 88.2896V88.6381H46.0189V88.2896H45.6703ZM44.99 88.2896L44.7168 88.5061L44.8215 88.6381H44.99V88.2896ZM39.6139 81.5081V81.1595H38.8927L39.3407 81.7246L39.6139 81.5081ZM39.9708 81.5081H40.3193V81.1595H39.9708V81.5081ZM39.9708 88.2896V88.6381H40.3193V88.2896H39.9708ZM39.4939 88.2896V80.4819H38.7968V88.2896H39.4939ZM39.1454 80.8305H39.8258V80.1334H39.1454V80.8305ZM39.5529 80.6987L44.9401 87.4802L45.4859 87.0466L40.0987 80.2651L39.5529 80.6987ZM45.213 86.9149H44.8561V87.612H45.213V86.9149ZM45.2047 87.2634V80.4819H44.5076V87.2634H45.2047ZM44.8561 80.8305H45.6703V80.1334H44.8561V80.8305ZM45.3218 80.4819V88.2896H46.0189V80.4819H45.3218ZM45.6703 87.941H44.99V88.6381H45.6703V87.941ZM45.2631 88.073L39.887 81.2915L39.3407 81.7246L44.7168 88.5061L45.2631 88.073ZM39.6139 81.8566H39.9708V81.1595H39.6139V81.8566ZM39.6222 81.5081V88.2896H40.3193V81.5081H39.6222ZM39.9708 87.941H39.1454V88.6381H39.9708V87.941ZM48.2187 88.2896H47.8701V88.6381H48.2187V88.2896ZM48.2187 80.4819V80.1334H47.8701V80.4819H48.2187ZM49.0441 80.4819H49.3926V80.1334H49.0441V80.4819ZM49.0441 88.2896V88.6381H49.3926V88.2896H49.0441ZM48.5673 88.2896V80.4819H47.8701V88.2896H48.5673ZM48.2187 80.8305H49.0441V80.1334H48.2187V80.8305ZM48.6955 80.4819V88.2896H49.3926V80.4819H48.6955ZM49.0441 87.941H48.2187V88.6381H49.0441V87.941ZM51.5844 88.2896H51.2359V88.6381H51.5844V88.2896ZM51.5844 80.4819V80.1334H51.2359V80.4819H51.5844ZM52.2648 80.4819L52.5655 80.3057L52.4645 80.1334H52.2648V80.4819ZM55.834 86.5719V86.9204H56.4423L56.1347 86.3956L55.834 86.5719ZM55.4771 86.5719L55.1756 86.3969L54.8717 86.9204H55.4771V86.5719ZM59.0128 80.4819V80.1334H58.8121L58.7114 80.3069L59.0128 80.4819ZM59.6932 80.4819H60.0417V80.1334H59.6932V80.4819ZM59.6932 88.2896V88.6381H60.0417V88.2896H59.6932ZM58.9013 88.2896H58.5527V88.6381H58.9013V88.2896ZM58.9013 81.72V81.3714H58.5527V81.72H58.9013ZM59.0909 81.72L59.3919 81.8958L59.6981 81.3714H59.0909V81.72ZM55.834 87.2969V87.6454H56.0341L56.135 87.4726L55.834 87.2969ZM55.4436 87.2969L55.1432 87.4735L55.2442 87.6454H55.4436V87.2969ZM52.1644 81.72V81.3714H51.5551L51.864 81.8967L52.1644 81.72ZM52.3763 81.72H52.7249V81.3714H52.3763V81.72ZM52.3763 88.2896V88.6381H52.7249V88.2896H52.3763ZM51.933 88.2896V80.4819H51.2359V88.2896H51.933ZM51.5844 80.8305H52.2648V80.1334H51.5844V80.8305ZM51.9641 80.6582L55.5333 86.7481L56.1347 86.3956L52.5655 80.3057L51.9641 80.6582ZM55.834 86.2233H55.4771V86.9204H55.834V86.2233ZM55.7785 86.7469L59.3142 80.6569L58.7114 80.3069L55.1756 86.3969L55.7785 86.7469ZM59.0128 80.8305H59.6932V80.1334H59.0128V80.8305ZM59.3446 80.4819V88.2896H60.0417V80.4819H59.3446ZM59.6932 87.941H58.9013V88.6381H59.6932V87.941ZM59.2498 88.2896V81.72H58.5527V88.2896H59.2498ZM58.9013 82.0686H59.0909V81.3714H58.9013V82.0686ZM58.7899 81.5442L55.533 87.1211L56.135 87.4726L59.3919 81.8958L58.7899 81.5442ZM55.834 86.9483H55.4436V87.6454H55.834V86.9483ZM55.7441 87.1202L52.4649 81.5433L51.864 81.8967L55.1432 87.4735L55.7441 87.1202ZM52.1644 82.0686H52.3763V81.3714H52.1644V82.0686ZM52.0278 81.72V88.2896H52.7249V81.72H52.0278ZM52.3763 87.941H51.5844V88.6381H52.3763V87.941ZM60.9879 88.2896L60.6709 88.1446L60.4453 88.6381H60.9879V88.2896ZM64.5571 80.4819V80.1334H64.3332L64.2401 80.337L64.5571 80.4819ZM65.3713 80.4819L65.6883 80.337L65.5952 80.1334H65.3713V80.4819ZM68.9405 88.2896V88.6381H69.4831L69.2575 88.1446L68.9405 88.2896ZM68.0705 88.2896L67.7524 88.4319L67.8446 88.6381H68.0705V88.2896ZM64.7913 80.9615V80.613H64.2535L64.4732 81.1039L64.7913 80.9615ZM65.1259 80.9615L65.4441 81.1039L65.6638 80.613H65.1259V80.9615ZM61.8467 88.2896V88.6381H62.0726L62.1649 88.4319L61.8467 88.2896ZM62.3933 86.2038L62.066 86.0838L61.8942 86.5524H62.3933V86.2038ZM62.6386 85.5346V85.186H62.3952L62.3114 85.4146L62.6386 85.5346ZM67.1782 85.5346L67.5055 85.4146L67.4217 85.186H67.1782V85.5346ZM67.4236 86.2038V86.5524H67.9226L67.7508 86.0838L67.4236 86.2038ZM61.3049 88.4345L64.8741 80.6269L64.2401 80.337L60.6709 88.1446L61.3049 88.4345ZM64.5571 80.8305H65.3713V80.1334H64.5571V80.8305ZM65.0543 80.6269L68.6235 88.4345L69.2575 88.1446L65.6883 80.337L65.0543 80.6269ZM68.9405 87.941H68.0705V88.6381H68.9405V87.941ZM68.3887 88.1472L65.1095 80.8192L64.4732 81.1039L67.7524 88.4319L68.3887 88.1472ZM64.7913 81.3101H65.1259V80.613H64.7913V81.3101ZM64.8078 80.8192L61.5286 88.1472L62.1649 88.4319L65.4441 81.1039L64.8078 80.8192ZM61.8467 87.941H60.9879V88.6381H61.8467V87.941ZM62.7205 86.3238L62.9659 85.6546L62.3114 85.4146L62.066 86.0838L62.7205 86.3238ZM62.6386 85.8831H67.1782V85.186H62.6386V85.8831ZM66.851 85.6546L67.0963 86.3238L67.7508 86.0838L67.5055 85.4146L66.851 85.6546ZM67.4236 85.8552H62.3933V86.5524H67.4236V85.8552ZM70.2321 88.2896H69.8835V88.6381H70.2321V88.2896ZM70.2321 80.4819V80.1334H69.8835V80.4819H70.2321ZM71.0575 80.4819H71.406V80.1334H71.0575V80.4819ZM71.0575 87.5757H70.7089V87.9243H71.0575V87.5757ZM75.4297 87.5757H75.7783V87.2272H75.4297V87.5757ZM75.4297 88.2896V88.6381H75.7783V88.2896H75.4297ZM70.5806 88.2896V80.4819H69.8835V88.2896H70.5806ZM70.2321 80.8305H71.0575V80.1334H70.2321V80.8305ZM70.7089 80.4819V87.5757H71.406V80.4819H70.7089ZM71.0575 87.9243H75.4297V87.2272H71.0575V87.9243ZM75.0812 87.5757V88.2896H75.7783V87.5757H75.0812ZM75.4297 87.941H70.2321V88.6381H75.4297V87.941ZM76.8001 88.2896H76.4516V88.6381H76.8001V88.2896ZM76.8001 80.4819V80.1334H76.4516V80.4819H76.8001ZM77.6255 80.4819H77.9741V80.1334H77.6255V80.4819ZM77.6255 88.2896V88.6381H77.9741V88.2896H77.6255ZM77.1487 88.2896V80.4819H76.4516V88.2896H77.1487ZM76.8001 80.8305H77.6255V80.1334H76.8001V80.8305ZM77.277 80.4819V88.2896H77.9741V80.4819H77.277ZM77.6255 87.941H76.8001V88.6381H77.6255V87.941ZM80.902 84.2631V83.9145H80.5535V84.2631H80.902ZM85.0289 84.2631H85.3775V83.9145H85.0289V84.2631ZM85.0289 84.9769V85.3254H85.3775V84.9769H85.0289ZM80.902 84.9769H80.5535V85.3254H80.902V84.9769ZM80.9912 88.2896V88.6381H81.3398V88.2896H80.9912ZM80.1659 88.2896H79.8173V88.6381H80.1659V88.2896ZM80.1659 80.4819V80.1334H79.8173V80.4819H80.1659ZM85.5197 80.4819H85.8682V80.1334H85.5197V80.4819ZM85.5197 81.1958V81.5443H85.8682V81.1958H85.5197ZM80.9912 81.1958V80.8472H80.6427V81.1958H80.9912ZM80.902 84.6116H85.0289V83.9145H80.902V84.6116ZM84.6803 84.2631V84.9769H85.3775V84.2631H84.6803ZM85.0289 84.6283H80.902V85.3254H85.0289V84.6283ZM81.2506 84.9769V84.2631H80.5535V84.9769H81.2506ZM80.9912 87.941H80.1659V88.6381H80.9912V87.941ZM80.5144 88.2896V80.4819H79.8173V88.2896H80.5144ZM80.1659 80.8305H85.5197V80.1334H80.1659V80.8305ZM85.1711 80.4819V81.1958H85.8682V80.4819H85.1711ZM85.5197 80.8472H80.9912V81.5443H85.5197V80.8472ZM80.6427 81.1958V88.2896H81.3398V81.1958H80.6427ZM87.9602 83.9731V83.6245H87.6117V83.9731H87.9602ZM92.0871 83.9731H92.4357V83.6245H92.0871V83.9731ZM92.0871 84.6757V85.0243H92.4357V84.6757H92.0871ZM87.9602 84.6757H87.6117V85.0243H87.9602V84.6757ZM88.0495 87.5757H87.7009V87.9243H88.0495V87.5757ZM92.7452 87.5757H93.0937V87.2272H92.7452V87.5757ZM92.7452 88.2896V88.6381H93.0937V88.2896H92.7452ZM87.2241 88.2896H86.8755V88.6381H87.2241V88.2896ZM87.2241 80.4819V80.1334H86.8755V80.4819H87.2241ZM92.5779 80.4819H92.9264V80.1334H92.5779V80.4819ZM92.5779 81.1958V81.5443H92.9264V81.1958H92.5779ZM88.0495 81.1958V80.8472H87.7009V81.1958H88.0495ZM87.9602 84.3216H92.0871V83.6245H87.9602V84.3216ZM91.7386 83.9731V84.6757H92.4357V83.9731H91.7386ZM92.0871 84.3272H87.9602V85.0243H92.0871V84.3272ZM88.3088 84.6757V83.9731H87.6117V84.6757H88.3088ZM88.0495 87.9243H92.7452V87.2272H88.0495V87.9243ZM92.3966 87.5757V88.2896H93.0937V87.5757H92.3966ZM92.7452 87.941H87.2241V88.6381H92.7452V87.941ZM87.5726 88.2896V80.4819H86.8755V88.2896H87.5726ZM87.2241 80.8305H92.5779V80.1334H87.2241V80.8305ZM92.2293 80.4819V81.1958H92.9264V80.4819H92.2293ZM92.5779 80.8472H88.0495V81.5443H92.5779V80.8472ZM87.7009 81.1958V87.5757H88.398V81.1958H87.7009Z" fill="#F1F1F1"/>
</svg>
