<svg width="46" height="50" viewBox="0 0 46 50" fill="none" xmlns="http://www.w3.org/2000/svg">
<g clip-path="url(#clip0_118_53)">
<path d="M29.3987 15.7434V19.4494C29.3987 22.0986 28.3048 24.639 26.358 26.5105L26.3431 26.5249C25.1063 27.713 23.4303 28.3799 21.6839 28.3799H19.8352C18.0931 28.3799 16.4213 27.7171 15.1867 26.5331C13.2292 24.6595 12.1289 22.1129 12.1289 19.4576V13.5148L12.9989 13.4225C15.9927 13.1065 18.7242 11.4587 20.5239 8.8813L21.0186 8.17334L21.153 8.39086C22.9996 11.3848 26.0509 13.2809 29.3966 13.5128V15.7413L29.3987 15.7434Z" stroke="black" stroke-width="0.955414" stroke-linecap="round" stroke-linejoin="round"/>
<path d="M26.6694 32.1579C25.6096 31.7311 24.8526 30.7625 24.7588 29.6133L24.6309 28.0168" stroke="black" stroke-width="0.955414" stroke-linecap="round" stroke-linejoin="round"/>
<path d="M0.53125 47.6139V42.8675C0.53125 40.8052 1.19014 38.7921 2.41624 37.1012C4.12637 34.7475 6.79819 33.2064 9.76214 32.8699L14.5919 32.3713C16.0909 32.2153 17.2616 31.0559 17.3767 29.6092L17.5047 28.0127" stroke="black" stroke-width="0.955414" stroke-linecap="round" stroke-linejoin="round"/>
<path d="M13.2806 41.9172H4.50391V45.5576H13.2806V41.9172Z" stroke="black" stroke-width="0.955414" stroke-linecap="round" stroke-linejoin="round"/>
<path d="M24.8832 30.2473L26.0773 30.0236C30.2417 29.2398 33.4978 25.9996 33.984 21.9426C34.0309 21.561 34.0543 21.1731 34.0543 20.7832V12.7453V13.2789C34.0543 6.22801 28.1136 0.510986 20.7869 0.510986C13.4602 0.510986 7.51953 6.22801 7.51953 13.2789V12.7453V20.7832C7.51953 20.9125 7.52166 21.0397 7.52806 21.169C7.70291 25.5871 11.1765 29.2418 15.7013 30.0031L17.2451 30.2617" stroke="black" stroke-width="0.955414" stroke-linecap="round" stroke-linejoin="round"/>
<path d="M17.1309 34.5217C18.1565 34.8849 19.5447 35.1086 21.0672 35.1086C22.5896 35.1086 23.9735 34.8849 25.0013 34.5217" stroke="black" stroke-width="0.955414" stroke-linecap="round" stroke-linejoin="round"/>
<path d="M18.041 22.6116C18.8106 23.0058 19.8521 23.2485 20.9944 23.2485C22.1368 23.2485 23.1751 23.0058 23.9463 22.6116" stroke="black" stroke-width="1.27389" stroke-linecap="round" stroke-linejoin="round"/>
<path d="M24.9316 17.1975C24.7179 17.0004 24.4286 16.879 24.1112 16.879C23.7939 16.879 23.5055 17.0004 23.2913 17.1975" stroke="black" stroke-width="1.27389" stroke-linecap="round" stroke-linejoin="round"/>
<path d="M18.6992 17.1975C18.4855 17.0004 18.1961 16.879 17.8788 16.879C17.5615 16.879 17.2731 17.0004 17.0589 17.1975" stroke="black" stroke-width="1.27389" stroke-linecap="round" stroke-linejoin="round"/>
<path d="M16.3364 47.6384C15.7991 45.8162 15.6818 43.8832 15.9974 42.0158C16.2938 40.2674 16.9634 38.5868 17.1851 36.8303C17.2768 36.1059 17.2768 35.3487 17.1489 34.6222C16.9783 33.6208 16.5667 32.681 15.8247 31.9854" stroke="black" stroke-width="0.955414" stroke-linecap="round" stroke-linejoin="round"/>
<path d="M9.76367 32.8721V35.9276" stroke="black" stroke-width="0.955414" stroke-linecap="round" stroke-linejoin="round"/>
<path d="M10.517 39.5586C11.518 39.1596 11.9933 38.0553 11.5787 37.092C11.1641 36.1287 10.0165 35.6713 9.01555 36.0703C8.01457 36.4693 7.53924 37.5736 7.95385 38.5369C8.36847 39.5002 9.51603 39.9576 10.517 39.5586Z" stroke="black" stroke-width="0.955414" stroke-linecap="round" stroke-linejoin="round"/>
<path d="M27.5379 37.47C28.8151 38.6991 29.1435 40.3736 28.2735 41.2129C27.4035 42.0501 25.6614 41.7341 24.3841 40.5049C23.1069 39.2758 22.7785 37.6013 23.6485 36.762C24.5185 35.9248 26.2606 36.2408 27.5379 37.47Z" stroke="black" stroke-width="0.955414" stroke-linecap="round" stroke-linejoin="round"/>
<path d="M41.1556 37.1823C39.8783 38.4115 39.55 40.0859 40.42 40.9252C41.2899 41.7625 43.0321 41.4464 44.3093 40.2173C45.5866 38.9881 45.915 37.3136 45.045 36.4743C44.175 35.635 42.4329 35.9531 41.1556 37.1823Z" stroke="black" stroke-width="0.955414" stroke-linecap="round" stroke-linejoin="round"/>
<path d="M40.2478 34.4555C40.7384 32.7835 40.1751 31.1669 38.9897 30.8447C37.8042 30.5226 36.4455 31.6168 35.9548 33.2888C35.4642 34.9608 36.0274 36.5773 37.2129 36.8995C38.3983 37.2217 39.7571 36.1275 40.2478 34.4555Z" stroke="black" stroke-width="0.955414" stroke-linecap="round" stroke-linejoin="round"/>
<path d="M31.6557 36.8928C32.8412 36.5706 33.4044 34.9541 32.9138 33.2821C32.4231 31.6101 31.0644 30.5159 29.8789 30.838C28.6934 31.1602 28.1302 32.7768 28.6208 34.4488C29.1115 36.1208 30.4702 37.215 31.6557 36.8928Z" stroke="black" stroke-width="0.955414" stroke-linecap="round" stroke-linejoin="round"/>
<path d="M39.5721 42.9881C39.0156 42.5961 38.619 42.0339 38.3716 41.4142C37.8385 40.0783 36.4951 39.1282 34.9172 39.1282C33.4544 39.1282 32.1921 39.9428 31.5886 41.1269C31.2432 41.8041 30.6696 42.3355 29.9681 42.6721C28.6716 43.2979 27.808 44.6338 27.9317 46.1483C28.0682 47.8289 29.4542 49.214 31.1963 49.4028C31.9661 49.4869 32.6932 49.3412 33.318 49.0314C34.0664 48.66 34.9471 48.66 35.6955 49.0314C36.3203 49.3412 37.0496 49.4849 37.8193 49.4028C39.5508 49.214 40.9325 47.8433 41.0797 46.1729C41.1948 44.8637 40.5743 43.6899 39.5742 42.986L39.5721 42.9881Z" stroke="black" stroke-width="0.955414" stroke-linecap="round" stroke-linejoin="round"/>
</g>
<defs>
<clipPath id="clip0_118_53">
<rect width="46" height="50" fill="white"/>
</clipPath>
</defs>
</svg>
